<svg width="54" height="55" viewBox="0 0 54 55" fill="none" xmlns="http://www.w3.org/2000/svg">
<path fill-rule="evenodd" clip-rule="evenodd" d="M48.5892 12.2533C46.7751 9.86545 44.4806 7.62911 41.7666 5.71213C39.1556 3.86801 36.4082 2.49732 33.6807 1.59935C39.8066 3.26245 45.0592 7.1017 48.5892 12.2533ZM48.5892 12.2533C51.3606 16.298 53.0703 21.1516 53.3073 26.3961C53.7594 21.9059 52.0467 16.8044 48.5892 12.2533ZM53.3073 26.3961C53.3262 26.8135 53.3357 27.2333 53.3357 27.6554C53.3357 42.5483 41.4676 54.6214 26.8276 54.6214C12.1875 54.6214 0.319374 42.5483 0.319374 27.6554C0.319374 15.7479 7.90632 5.64303 18.4309 2.07035C16.7228 2.97585 15.27 4.23236 14.1731 5.83941C9.18381 13.1494 13.4485 24.9443 23.6986 32.1841C33.9487 39.4238 46.3027 39.3668 51.292 32.0568C52.4424 30.3714 53.1008 28.4475 53.3073 26.3961ZM18.4309 2.07035C22.5135 -0.0938411 28.0546 -0.252954 33.6807 1.59935C31.4947 1.00587 29.1974 0.689513 26.8276 0.689513C23.8929 0.689513 21.0696 1.17464 18.4309 2.07035Z" fill="#C6D1D8"/>
</svg>
